<?xml version="1.0" encoding="UTF-8" standalone="no"?>
<!-- Generator: Adobe Illustrator 27.5.0, SVG Export Plug-In . SVG Version: 6.00 Build 0)  -->

<svg
   version="1.1"
   id="Layer_1"
   x="0px"
   y="0px"
   viewBox="0 0 55.667968 55.667968"
   xml:space="preserve"
   width="55.667969"
   height="55.667969"
   xmlns="http://www.w3.org/2000/svg"
   xmlns:svg="http://www.w3.org/2000/svg"><defs
   id="defs79"><radialGradient
     id="SVGID_1_"
     cx="211.5213"
     cy="10290.379"
     r="58.792099"
     gradientTransform="matrix(0.7876,0,0,0.1208,-115.4038,-1107.4211)"
     gradientUnits="userSpaceOnUse">
		<stop
   offset="0"
   style="stop-color:#63A36B"
   id="stop10" />
		<stop
   offset="0.1986"
   style="stop-color:#8FC493"
   id="stop11" />
		<stop
   offset="0.4162"
   style="stop-color:#BAE4BA"
   id="stop12" />
		<stop
   offset="0.5272"
   style="stop-color:#CBF0C9"
   id="stop13" />
		<stop
   offset="0.706"
   style="stop-color:#E5F8E4"
   id="stop14" />
		<stop
   offset="0.881"
   style="stop-color:#F8FDF8"
   id="stop15" />
		<stop
   offset="1"
   style="stop-color:#FFFFFF"
   id="stop16" />
	</radialGradient><radialGradient
     id="SVGID_00000023263389695336004290000011454513305436805507_"
     cx="309.89651"
     cy="10290.379"
     r="58.792099"
     gradientTransform="matrix(0.7876,0,0,0.1208,-115.4038,-1107.4211)"
     gradientUnits="userSpaceOnUse">
		<stop
   offset="0"
   style="stop-color:#63A36B"
   id="stop17" />
		<stop
   offset="0.1986"
   style="stop-color:#8FC493"
   id="stop18" />
		<stop
   offset="0.4162"
   style="stop-color:#BAE4BA"
   id="stop19" />
		<stop
   offset="0.5272"
   style="stop-color:#CBF0C9"
   id="stop20" />
		<stop
   offset="0.706"
   style="stop-color:#E5F8E4"
   id="stop21" />
		<stop
   offset="0.881"
   style="stop-color:#F8FDF8"
   id="stop22" />
		<stop
   offset="1"
   style="stop-color:#FFFFFF"
   id="stop23" />
	</radialGradient><radialGradient
     id="SVGID_00000002351946587549750280000003473013006268240566_"
     cx="443.54269"
     cy="10290.379"
     r="58.792099"
     gradientTransform="matrix(0.7876,0,0,0.1208,-115.4038,-1107.4211)"
     gradientUnits="userSpaceOnUse">
		<stop
   offset="0"
   style="stop-color:#63A36B"
   id="stop24" />
		<stop
   offset="0.1986"
   style="stop-color:#8FC493"
   id="stop25" />
		<stop
   offset="0.4162"
   style="stop-color:#BAE4BA"
   id="stop26" />
		<stop
   offset="0.5272"
   style="stop-color:#CBF0C9"
   id="stop27" />
		<stop
   offset="0.706"
   style="stop-color:#E5F8E4"
   id="stop28" />
		<stop
   offset="0.881"
   style="stop-color:#F8FDF8"
   id="stop29" />
		<stop
   offset="1"
   style="stop-color:#FFFFFF"
   id="stop30" />
	</radialGradient><radialGradient
     id="SVGID_00000137133939368333294100000016928507000805633459_"
     cx="525.36218"
     cy="10290.379"
     r="58.792099"
     gradientTransform="matrix(0.7876,0,0,0.1208,-115.4038,-1107.4211)"
     gradientUnits="userSpaceOnUse">
		<stop
   offset="0"
   style="stop-color:#63A36B"
   id="stop31" />
		<stop
   offset="0.1986"
   style="stop-color:#8FC493"
   id="stop32" />
		<stop
   offset="0.4162"
   style="stop-color:#BAE4BA"
   id="stop33" />
		<stop
   offset="0.5272"
   style="stop-color:#CBF0C9"
   id="stop34" />
		<stop
   offset="0.706"
   style="stop-color:#E5F8E4"
   id="stop35" />
		<stop
   offset="0.881"
   style="stop-color:#F8FDF8"
   id="stop36" />
		<stop
   offset="1"
   style="stop-color:#FFFFFF"
   id="stop37" />
	</radialGradient><radialGradient
     id="SVGID_00000103964402957024549330000005940006595529824167_"
     cx="629.97583"
     cy="10290.379"
     r="58.792099"
     gradientTransform="matrix(0.7876,0,0,0.1208,-115.4038,-1107.4211)"
     gradientUnits="userSpaceOnUse">
		<stop
   offset="0"
   style="stop-color:#63A36B"
   id="stop38" />
		<stop
   offset="0.1986"
   style="stop-color:#8FC493"
   id="stop39" />
		<stop
   offset="0.4162"
   style="stop-color:#BAE4BA"
   id="stop40" />
		<stop
   offset="0.5272"
   style="stop-color:#CBF0C9"
   id="stop41" />
		<stop
   offset="0.706"
   style="stop-color:#E5F8E4"
   id="stop42" />
		<stop
   offset="0.881"
   style="stop-color:#F8FDF8"
   id="stop43" />
		<stop
   offset="1"
   style="stop-color:#FFFFFF"
   id="stop44" />
	</radialGradient><radialGradient
     id="SVGID_00000012437631697012080970000015603765442425549484_"
     cx="223.0383"
     cy="11355.718"
     r="58.792301"
     gradientTransform="matrix(0.7876,0,0,0.1208,-115.4038,-1107.4211)"
     gradientUnits="userSpaceOnUse">
		<stop
   offset="0"
   style="stop-color:#63A36B"
   id="stop45" />
		<stop
   offset="0.1986"
   style="stop-color:#8FC493"
   id="stop46" />
		<stop
   offset="0.4162"
   style="stop-color:#BAE4BA"
   id="stop47" />
		<stop
   offset="0.5272"
   style="stop-color:#CBF0C9"
   id="stop48" />
		<stop
   offset="0.706"
   style="stop-color:#E5F8E4"
   id="stop49" />
		<stop
   offset="0.881"
   style="stop-color:#F8FDF8"
   id="stop50" />
		<stop
   offset="1"
   style="stop-color:#FFFFFF"
   id="stop51" />
	</radialGradient><radialGradient
     id="SVGID_00000101076700821832386420000001723816967569107877_"
     cx="321.95331"
     cy="11355.718"
     r="58.792301"
     gradientTransform="matrix(0.7876,0,0,0.1208,-115.4038,-1107.4211)"
     gradientUnits="userSpaceOnUse">
		<stop
   offset="0"
   style="stop-color:#63A36B"
   id="stop52" />
		<stop
   offset="0.1986"
   style="stop-color:#8FC493"
   id="stop53" />
		<stop
   offset="0.4162"
   style="stop-color:#BAE4BA"
   id="stop54" />
		<stop
   offset="0.5272"
   style="stop-color:#CBF0C9"
   id="stop55" />
		<stop
   offset="0.706"
   style="stop-color:#E5F8E4"
   id="stop56" />
		<stop
   offset="0.881"
   style="stop-color:#F8FDF8"
   id="stop57" />
		<stop
   offset="1"
   style="stop-color:#FFFFFF"
   id="stop58" />
	</radialGradient><radialGradient
     id="SVGID_00000083800204401348777530000006162919542861273733_"
     cx="423.9277"
     cy="11355.718"
     r="58.792301"
     gradientTransform="matrix(0.7876,0,0,0.1208,-115.4038,-1107.4211)"
     gradientUnits="userSpaceOnUse">
		<stop
   offset="0"
   style="stop-color:#63A36B"
   id="stop59" />
		<stop
   offset="0.1986"
   style="stop-color:#8FC493"
   id="stop60" />
		<stop
   offset="0.4162"
   style="stop-color:#BAE4BA"
   id="stop61" />
		<stop
   offset="0.5272"
   style="stop-color:#CBF0C9"
   id="stop62" />
		<stop
   offset="0.706"
   style="stop-color:#E5F8E4"
   id="stop63" />
		<stop
   offset="0.881"
   style="stop-color:#F8FDF8"
   id="stop64" />
		<stop
   offset="1"
   style="stop-color:#FFFFFF"
   id="stop65" />
	</radialGradient><radialGradient
     id="SVGID_00000111881009266422068230000016747752852394599089_"
     cx="525.36218"
     cy="11355.718"
     r="58.792301"
     gradientTransform="matrix(0.7876,0,0,0.1208,-115.4038,-1107.4211)"
     gradientUnits="userSpaceOnUse">
		<stop
   offset="0"
   style="stop-color:#63A36B"
   id="stop66" />
		<stop
   offset="0.1986"
   style="stop-color:#8FC493"
   id="stop67" />
		<stop
   offset="0.4162"
   style="stop-color:#BAE4BA"
   id="stop68" />
		<stop
   offset="0.5272"
   style="stop-color:#CBF0C9"
   id="stop69" />
		<stop
   offset="0.706"
   style="stop-color:#E5F8E4"
   id="stop70" />
		<stop
   offset="0.881"
   style="stop-color:#F8FDF8"
   id="stop71" />
		<stop
   offset="1"
   style="stop-color:#FFFFFF"
   id="stop72" />
	</radialGradient><radialGradient
     id="SVGID_00000124848296506669853950000010193492054305422976_"
     cx="622.41772"
     cy="11355.718"
     r="58.792301"
     gradientTransform="matrix(0.7876,0,0,0.1208,-115.4038,-1107.4211)"
     gradientUnits="userSpaceOnUse">
		<stop
   offset="0"
   style="stop-color:#63A36B"
   id="stop73" />
		<stop
   offset="0.1986"
   style="stop-color:#8FC493"
   id="stop74" />
		<stop
   offset="0.4162"
   style="stop-color:#BAE4BA"
   id="stop75" />
		<stop
   offset="0.5272"
   style="stop-color:#CBF0C9"
   id="stop76" />
		<stop
   offset="0.706"
   style="stop-color:#E5F8E4"
   id="stop77" />
		<stop
   offset="0.881"
   style="stop-color:#F8FDF8"
   id="stop78" />
		<stop
   offset="1"
   style="stop-color:#FFFFFF"
   id="stop79" />
	</radialGradient></defs>

<g
   id="g79"
   transform="translate(-660.71605,-62.808766)">
	
	<path
   style="fill:#36c759"
   d="M 69.01,63.648 C 62.346,65.139 57.147,67.831 53.841,69.927 56.85,67.423 61.009,63.299 64.472,57.415 73.922,41.362 53.504,35.628 49.772,45.49 45.468,35.448 25.807,41.675 35.072,57.415 38.536,63.3 42.696,67.426 45.706,69.929 42.4,67.833 37.2,65.14 30.534,63.648 12.71,59.66 12.817,80.282 23.695,81.298 c -8.242,6.578 3.481,24.252 15.861,10.332 5.508,-6.194 8.234,-12.565 9.425,-16.052 -0.161,1.588 -0.351,3.236 -0.488,4.958 -0.166,1.909 -0.337,3.882 -0.51,5.887 -0.108,2.013 -0.216,4.058 -0.326,6.103 -0.151,2.046 -0.103,4.096 -0.138,6.114 -0.009,1.01 -0.018,2.012 -0.027,3.001 -0.013,0.99 -0.026,1.968 0.031,2.928 0.077,1.922 0.151,3.779 0.222,5.541 0.084,1.761 0.096,3.434 0.27,4.961 0.549,6.131 0.915,10.218 0.915,10.218 0.002,0.022 0.005,0.049 0.008,0.071 0.123,0.936 0.982,1.595 1.917,1.471 0.936,-0.123 1.595,-0.982 1.472,-1.917 l -0.01,-0.078 c 0,0 -0.528,-4.014 -1.321,-10.036 -0.235,-1.504 -0.314,-3.146 -0.469,-4.879 -0.142,-1.734 -0.292,-3.564 -0.446,-5.456 -0.096,-0.947 -0.122,-1.91 -0.15,-2.887 -0.032,-0.977 -0.064,-1.964 -0.096,-2.961 -0.048,-1.993 -0.181,-4.019 -0.115,-6.046 0.024,-2.028 0.047,-4.057 0.071,-6.053 0.09,-1.998 0.179,-3.965 0.264,-5.868 0.073,-1.903 0.217,-3.748 0.314,-5.495 0.003,-0.047 0.005,-0.09 0.008,-0.137 1.08,3.329 3.795,10.072 9.612,16.613 C 72.368,105.551 84.092,87.877 75.85,81.299 86.728,80.283 86.834,59.66 69.01,63.648 Z"
   id="path1" />
	<path
   style="fill:#008f37"
   d="m 155.71,70.503 c -6.56,-2.604 -12.469,-2.978 -15.72,-2.933 3.234,-0.339 9.056,-1.407 15.262,-4.765 14.249,-7.71 1.619,-21.155 -5.59,-15.485 1.306,-9.412 -16.135,-13.607 -16.305,2.277 -0.088,8.147 2.286,14.417 3.415,16.929 -1.407,-2.512 -4.968,-8.012 -11.356,-12.721 -13.042,-9.612 -19.832,7.539 -11.632,11.65 -9.073,2.825 -5.445,20.392 9.001,13.785 6.782,-3.102 11.257,-7.396 13.343,-9.705 -0.055,0.111 -0.109,0.22 -0.168,0.34 -0.358,0.729 -0.794,1.615 -1.292,2.631 -0.425,1.048 -0.905,2.231 -1.428,3.522 -0.565,1.279 -0.988,2.728 -1.498,4.243 -0.243,0.76 -0.524,1.534 -0.754,2.34 -0.215,0.811 -0.436,1.639 -0.659,2.482 -0.215,0.844 -0.47,1.696 -0.663,2.572 -0.184,0.878 -0.371,1.768 -0.559,2.663 -0.413,1.787 -0.673,3.629 -0.974,5.466 -0.162,0.918 -0.279,1.84 -0.38,2.762 -0.109,0.921 -0.218,1.838 -0.326,2.748 -0.165,1.824 -0.321,3.622 -0.425,5.365 -0.075,1.744 -0.184,3.431 -0.188,5.032 -0.011,0.801 -0.023,1.581 -0.033,2.334 0.008,0.754 0.016,1.482 0.024,2.181 0.003,1.4 0.083,2.682 0.113,3.819 0.073,1.138 0.112,2.129 0.186,2.948 0.06,0.814 0.119,1.464 0.168,1.913 0.046,0.437 0.071,0.67 0.071,0.67 0.002,0.016 0.005,0.038 0.007,0.054 0.114,0.783 0.842,1.325 1.625,1.211 0.783,-0.114 1.325,-0.842 1.211,-1.625 l -0.004,-0.026 c 0,0 -0.033,-0.225 -0.094,-0.647 -0.06,-0.41 -0.139,-1.022 -0.229,-1.816 -0.102,-0.787 -0.177,-1.756 -0.291,-2.861 -0.072,-1.11 -0.199,-2.361 -0.254,-3.731 -0.034,-0.685 -0.069,-1.398 -0.106,-2.137 -0.018,-0.739 -0.036,-1.504 -0.055,-2.29 -0.057,-1.572 -0.013,-3.231 -0.005,-4.948 0.036,-1.715 0.122,-3.488 0.214,-5.289 0.072,-0.899 0.144,-1.805 0.217,-2.714 0.065,-0.911 0.144,-1.824 0.27,-2.731 0.227,-1.817 0.413,-3.644 0.752,-5.416 0.151,-0.889 0.301,-1.772 0.449,-2.644 0.157,-0.87 0.375,-1.716 0.556,-2.556 0.189,-0.84 0.374,-1.664 0.555,-2.472 0.196,-0.804 0.444,-1.574 0.654,-2.334 0.446,-1.512 0.809,-2.963 1.317,-4.243 0.468,-1.295 0.897,-2.482 1.277,-3.535 0.443,-0.996 0.83,-1.866 1.152,-2.589 -0.845,3.137 -1.942,8.961 -1.034,15.97 2.081,16.067 19.163,9.104 16.459,0.339 8.312,4.599 18.488,-10.173 3.724,-16.033 z"
   id="path2" />
	<path
   style="fill:#006a1f"
   d="m 170.626,191.022 c 7.136,-6.541 -3.881,-19.501 -14.327,-7.333 -1.411,1.644 -2.595,3.279 -3.599,4.848 0.483,-1.799 0.894,-3.775 1.158,-5.926 1.993,-16.233 -15.424,-15.006 -15.067,-5.648 -6.54,-7.137 -19.498,3.881 -7.332,14.325 1.645,1.412 3.28,2.595 4.85,3.6 -1.8,-0.483 -3.776,-0.895 -5.927,-1.159 -16.234,-1.993 -15.007,15.424 -5.65,15.066 -7.136,6.541 3.881,19.5 14.326,7.333 0.717,-0.835 1.363,-1.665 1.971,-2.489 -1.212,3.956 -2.175,7.987 -2.881,12.058 -0.461,2.27 -0.723,4.565 -1.073,6.853 -0.293,2.293 -0.511,4.593 -0.758,6.894 l -0.479,6.917 -0.256,6.928 c -0.001,0.031 -0.002,0.069 -0.001,0.101 0.018,1.034 0.87,1.857 1.903,1.84 1.033,-0.018 1.857,-0.87 1.839,-1.903 l -0.001,-0.06 -0.116,-6.819 0.104,-6.819 c 0.12,-2.267 0.212,-4.541 0.379,-6.807 0.222,-2.258 0.358,-4.534 0.69,-6.78 0.253,-2.143 0.58,-4.277 0.972,-6.398 -0.029,13.633 15.553,12.072 15.214,3.212 6.54,7.137 19.499,-3.881 7.333,-14.327 -1.644,-1.411 -3.279,-2.594 -4.848,-3.599 1.799,0.483 3.775,0.894 5.925,1.158 16.235,1.993 15.009,-15.423 5.651,-15.066 z"
   id="path3" />
	<path
   style="fill:#006a1f"
   d="m 244.734,69.007 c 6.312,-6.454 -5.503,-20.238 -14.558,-7.114 -3.338,4.838 -5.041,9.58 -5.895,12.821 0.558,-4.012 0.917,-10.562 -0.834,-18.091 -4.313,-18.557 -23.652,-9.129 -19.684,1.555 -9.912,-4.772 -21.222,14.243 -2.537,19.583 6.666,1.905 12.63,2.076 16.701,1.834 -3.215,0.67 -7.5,1.971 -11.971,4.517 -13.856,7.892 -1.139,20.849 5.834,15.118 -1.085,9.288 16.168,13.043 15.995,-2.591 -0.068,-6.052 -1.491,-11.012 -2.686,-14.139 0.541,0.919 1.163,1.977 1.869,3.176 0.545,0.996 1.16,2.061 1.724,3.228 0.602,1.147 1.137,2.403 1.703,3.69 0.51,1.312 1.046,2.66 1.463,4.074 0.235,0.698 0.451,1.406 0.617,2.134 0.179,0.722 0.374,1.443 0.54,2.169 0.246,1.474 0.603,2.922 0.726,4.389 0.085,0.728 0.17,1.45 0.253,2.164 0.038,0.719 0.076,1.428 0.113,2.126 0.027,0.698 0.086,1.382 0.086,2.054 -0.011,0.673 -0.022,1.331 -0.032,1.972 -0.01,0.639 -0.019,1.262 -0.029,1.863 -0.048,0.602 -0.094,1.183 -0.139,1.741 -0.099,1.115 -0.147,2.137 -0.264,3.039 -0.128,0.902 -0.239,1.688 -0.331,2.335 -0.182,1.292 -0.286,2.03 -0.286,2.03 l -0.016,0.108 c -0.004,0.033 -0.008,0.065 -0.01,0.099 -0.082,0.995 0.658,1.868 1.653,1.949 0.995,0.082 1.868,-0.658 1.949,-1.652 0,0 0.064,-0.777 0.176,-2.136 0.056,-0.679 0.123,-1.502 0.2,-2.448 0.067,-0.946 0.057,-2.023 0.091,-3.189 0.011,-0.584 0.024,-1.192 0.036,-1.821 -0.027,-0.631 -0.055,-1.283 -0.083,-1.953 -0.029,-0.669 -0.058,-1.356 -0.089,-2.059 -0.042,-0.701 -0.144,-1.416 -0.215,-2.144 -0.082,-0.726 -0.151,-1.466 -0.249,-2.211 -0.13,-0.742 -0.263,-1.492 -0.396,-2.248 -0.22,-1.519 -0.678,-3.02 -1.027,-4.534 -0.218,-0.748 -0.465,-1.487 -0.695,-2.227 -0.218,-0.744 -0.486,-1.467 -0.771,-2.178 -0.519,-1.441 -1.155,-2.804 -1.761,-4.124 -0.66,-1.294 -1.286,-2.548 -1.969,-3.684 -0.647,-1.158 -1.334,-2.202 -1.945,-3.178 -1.274,-1.9 -2.334,-3.483 -3.077,-4.591 -0.295,-0.45 -0.532,-0.82 -0.714,-1.107 2.027,1.235 8.126,4.537 16.579,5.363 15.558,1.517 13.303,-15.993 3.955,-15.712 z"
   id="path4" />
	<path
   style="fill:#00ab37"
   d="m 329.131,80.348 c -7.52,-7.401 -25.292,-4.05 -27.737,-3.547 0,-0.001 0,-0.003 0,-0.004 2.58,-0.595 22.042,-5.415 26.183,-16.326 4.011,-10.57 -11.682,-16.006 -16.31,-7.269 2.977,-9.396 -11.599,-17.01 -16.502,-6.823 -5.047,10.482 4.781,27.837 6.174,30.204 -1.339,-2.214 -10.857,-17.334 -21.299,-17.825 -10.183,-0.478 -10.449,14.496 -1.663,16.016 -8.887,0.079 -11.333,14.707 -1.227,16.059 9.817,1.313 21.175,-10.456 23.794,-13.34 -0.116,0.325 -0.266,0.745 -0.449,1.261 -0.227,0.639 -0.502,1.412 -0.818,2.301 -0.345,0.88 -0.581,1.919 -0.922,3.029 -0.306,1.12 -0.717,2.315 -0.979,3.621 -0.283,1.301 -0.637,2.664 -0.901,4.094 -0.233,1.436 -0.521,2.915 -0.727,4.431 -0.158,1.52 -0.396,3.062 -0.494,4.615 -0.089,1.553 -0.242,3.107 -0.236,4.642 -0.014,0.768 -0.027,1.529 -0.041,2.282 0.019,0.753 0.038,1.496 0.057,2.227 0.012,1.466 0.155,2.877 0.236,4.218 0.137,1.338 0.251,2.607 0.426,3.77 0.161,1.166 0.331,2.233 0.516,3.176 0.162,0.945 0.364,1.764 0.509,2.442 0.167,0.676 0.296,1.205 0.409,1.589 0.105,0.361 0.161,0.553 0.161,0.553 0.007,0.022 0.015,0.049 0.022,0.07 0.274,0.796 1.141,1.22 1.937,0.946 0.796,-0.274 1.219,-1.141 0.945,-1.937 l -0.016,-0.046 c 0,0 -0.06,-0.174 -0.172,-0.501 -0.107,-0.304 -0.253,-0.797 -0.44,-1.42 -0.167,-0.632 -0.397,-1.392 -0.594,-2.288 -0.221,-0.89 -0.433,-1.903 -0.643,-3.016 -0.223,-1.109 -0.393,-2.328 -0.589,-3.613 -0.141,-1.293 -0.349,-2.654 -0.428,-4.074 -0.053,-0.71 -0.107,-1.431 -0.162,-2.162 -0.022,-0.732 -0.046,-1.473 -0.068,-2.22 -0.08,-1.496 -0.005,-3.017 0.008,-4.538 0.02,-1.523 0.18,-3.038 0.262,-4.538 0.129,-1.494 0.341,-2.958 0.5,-4.381 0.19,-1.418 0.474,-2.773 0.689,-4.069 0.195,-1.302 0.541,-2.497 0.79,-3.617 0.283,-1.112 0.465,-2.154 0.764,-3.038 0.269,-0.895 0.504,-1.674 0.698,-2.315 0.062,-0.206 0.118,-0.393 0.172,-0.57 -0.358,4.876 -0.819,19.947 6.458,25.972 7.9,6.539 17.162,-5.342 11.017,-11.874 7.193,5.31 17.999,-4.973 10.69,-12.167 z"
   id="path5" />
	<path
   style="fill:#00ab37"
   d="m 76.292,188.008 c -7.785,3.652 -13.863,6.158 -14.955,6.604 -0.012,-0.029 -0.037,-0.048 -0.06,-0.07 0.821,-0.914 5.829,-6.342 12.625,-10.4 11.983,-7.152 -0.35,-21.35 -7.378,-12.198 -2.965,-10.906 -18.043,-5.157 -12.061,7.6 3.65,7.781 6.156,13.857 6.603,14.952 -0.029,0.012 -0.048,0.038 -0.07,0.061 -0.916,-0.822 -6.342,-5.827 -10.398,-12.623 -7.153,-11.983 -21.351,0.351 -12.198,7.379 -10.908,2.964 -5.158,18.042 7.6,12.06 7.541,-3.535 13.495,-6.006 14.852,-6.563 -0.068,0.139 -0.13,0.28 -0.196,0.419 -1.466,1.579 -6.141,6.353 -12.267,10.01 -11.661,6.961 -0.293,20.587 6.802,12.876 -0.163,1.995 -0.286,3.993 -0.347,5.992 -0.165,5.056 -0.011,10.117 0.33,15.163 0.361,5.051 0.902,10.063 1.742,15.097 0.001,0.008 0.004,0.02 0.005,0.028 0.109,0.56 0.652,0.926 1.212,0.817 0.56,-0.109 0.926,-0.652 0.817,-1.212 l -0.005,-0.025 c -0.95,-4.872 -1.629,-9.864 -2.12,-14.841 -0.473,-4.986 -0.762,-9.994 -0.734,-15.003 0.006,-1.78 0.064,-3.56 0.151,-5.339 3.804,9.015 17.301,3.234 11.587,-8.952 -3.555,-7.581 -6.031,-13.554 -6.571,-14.87 0.019,-0.042 0.036,-0.085 0.055,-0.126 0.97,0.872 6.351,5.856 10.381,12.606 7.153,11.983 21.35,-0.349 12.199,-7.379 10.906,-2.966 5.155,-18.044 -7.601,-12.063 z"
   id="path6" />
	<path
   style="fill:#00ab37"
   d="m 705.54349,94.340583 c -8.632,-1.669 -15.23881,-3.267906 -16.69481,-3.625906 -0.004,-0.035 0.002,-0.06609 -0.002,-0.100094 -10e-4,-0.012 -0.008,-0.022 -0.011,-0.033 1.519,-0.317 8.982,-1.742 17.07,-1.001 14.6,1.341 12.912,-18.343 1.284,-14.92 4.228,-11.096 -12.132,-15.542 -14.943,-1.01 -1.683,8.697 -3.287,15.324 -3.628,16.712 -0.029,-0.007 -0.059,-0.014 -0.091,-0.011 -0.014,10e-4 -0.025,0.008 -0.038,0.011 -0.315,-1.507 -1.746,-8.977 -1.005,-17.075 1.343,-14.598 -18.342,-12.913 -14.92,-1.283 -11.094,-4.23 -15.542,12.13 -1.009,14.941 8.688,1.682 15.312,3.284 16.71,3.627 -0.008,0.032 -0.015,0.064 -0.012,0.098 10e-4,0.012 10e-4,0.023 0.002,0.035 -1.538,0.321 -8.989,1.74 -17.063,1.001 -14.598,-1.341 -12.911,18.342997 -1.282,14.921997 -4.23,11.093 12.12992,15.53898 14.942,1.008 1.5135,-5.41564 2.92672,-15.322283 3.61396,-16.700531 0.0757,0.01714 0.0874,0.01691 0.16683,0.0052 0.44912,1.529337 1.50407,10.172801 0.97825,17.059341 -1.341,14.598 18.343,12.912 14.921,1.283 11.097,4.229 15.544,-12.13099 1.011,-14.94299 z"
   id="path7" />
	<path
   style="fill:#006a1f"
   d="m 323.302,190.525 c 6.678,-6.201 -3.779,-18.816 -13.533,-7.237 -1.041,1.235 -1.94,2.466 -2.738,3.668 0.359,-1.398 0.672,-2.889 0.895,-4.489 2.121,-15.295 -14.658,-14.028 -14.434,-5.218 -6.202,-6.678 -18.815,3.78 -7.238,13.533 1.235,1.041 2.465,1.94 3.667,2.738 -1.397,-0.359 -2.889,-0.672 -4.488,-0.894 -15.295,-2.121 -14.028,14.658 -5.218,14.434 -6.678,6.201 3.779,18.814 13.533,7.237 0.262,-0.311 0.503,-0.621 0.749,-0.932 -0.424,1.29 -0.817,2.592 -1.161,3.907 -1.592,6.062 -2.299,12.365 -2.113,18.646 0.178,6.284 1.241,12.533 2.979,18.578 0.002,0.005 0.005,0.015 0.006,0.021 0.166,0.535 0.734,0.833 1.269,0.667 0.535,-0.166 0.833,-0.734 0.667,-1.269 l -0.003,-0.011 c -1.82,-5.856 -2.987,-11.921 -3.294,-18.05 -0.314,-6.125 0.242,-12.302 1.676,-18.284 0.467,-1.959 1.037,-3.893 1.684,-5.802 -0.241,1.064 -0.453,2.178 -0.615,3.35 -2.122,15.295 14.658,14.028 14.433,5.218 6.202,6.677 18.815,-3.78 7.238,-13.533 -1.235,-1.041 -2.466,-1.94 -3.668,-2.738 1.397,0.359 2.889,0.673 4.489,0.895 15.295,2.121 14.028,-14.66 5.218,-14.435 z"
   id="path8" />
	<path
   style="fill:#36c759"
   d="m 406.98,67.487 c 8.878,-4.78 1.197,-21.196 -12.472,-11.521 -5.595,3.962 -9.155,8.426 -11.086,11.312 1.305,-3.221 2.992,-8.66 3.132,-15.493 0.348,-17.077 -17.922,-13.511 -16.532,-3.861 -7.68,-6.532 -20.181,6.591 -6.198,15.807 5.517,3.634 10.782,5.34 14.192,6.13 -3.637,-0.1 -9.44,0.234 -16.011,2.485 -16.493,5.652 -7.306,22.134 2.135,17.547 -3.911,9.365 13.577,17.713 17.669,0.408 1.759,-7.439 1.298,-13.724 0.765,-17.196 0.526,1.152 0.994,2.412 1.514,3.719 0.342,0.803 0.589,1.667 0.876,2.537 0.272,0.875 0.588,1.756 0.841,2.673 0.461,1.847 1.025,3.732 1.37,5.702 0.183,0.981 0.425,1.959 0.564,2.96 0.145,0.999 0.291,2.003 0.436,3.006 0.172,0.999 0.205,2.016 0.314,3.018 0.084,1.005 0.208,2.003 0.219,3 0.035,0.995 0.07,1.982 0.105,2.957 0.017,0.975 -0.032,1.938 -0.044,2.885 -0.01,0.473 -0.02,0.942 -0.031,1.407 -0.012,0.464 -0.069,0.922 -0.101,1.375 -0.076,0.906 -0.149,1.793 -0.221,2.656 -0.099,0.858 -0.247,1.686 -0.361,2.491 -0.13,0.801 -0.21,1.585 -0.403,2.312 -0.167,0.731 -0.328,1.432 -0.48,2.099 -0.081,0.331 -0.14,0.663 -0.232,0.968 -0.097,0.302 -0.192,0.596 -0.283,0.88 -0.181,0.568 -0.351,1.1 -0.508,1.592 -0.078,0.246 -0.152,0.481 -0.224,0.707 -0.096,0.227 -0.188,0.443 -0.276,0.647 -0.71,1.642 -1.115,2.58 -1.115,2.58 l -0.004,0.009 c -0.003,0.007 -0.007,0.015 -0.01,0.023 -0.23,0.574 0.049,1.228 0.624,1.458 0.575,0.23 1.228,-0.049 1.458,-0.624 0,0 0.38,-0.948 1.045,-2.609 0.082,-0.208 0.169,-0.428 0.259,-0.658 0.073,-0.247 0.149,-0.506 0.229,-0.775 0.157,-0.539 0.328,-1.122 0.51,-1.745 0.09,-0.312 0.183,-0.633 0.279,-0.964 0.089,-0.331 0.141,-0.672 0.216,-1.021 0.14,-0.699 0.287,-1.434 0.441,-2.202 0.18,-0.763 0.241,-1.574 0.353,-2.407 0.096,-0.835 0.225,-1.695 0.302,-2.583 0.05,-0.889 0.101,-1.802 0.153,-2.736 0.02,-0.466 0.066,-0.937 0.065,-1.414 -0.003,-0.476 -0.005,-0.957 -0.007,-1.442 -0.014,-0.969 0.008,-1.955 -0.036,-2.95 -0.062,-0.994 -0.126,-2 -0.189,-3.015 -0.039,-1.015 -0.192,-2.029 -0.306,-3.05 -0.138,-1.018 -0.201,-2.048 -0.403,-3.061 -0.176,-1.015 -0.352,-2.029 -0.527,-3.041 -0.169,-1.011 -0.441,-1.999 -0.654,-2.989 -0.404,-1.987 -1.027,-3.887 -1.546,-5.743 -0.281,-0.922 -0.625,-1.808 -0.926,-2.686 -0.314,-0.873 -0.588,-1.739 -0.957,-2.545 -0.698,-1.626 -1.307,-3.182 -2.05,-4.538 -0.091,-0.179 -0.178,-0.35 -0.267,-0.525 1.977,2.114 6.948,6.797 14.781,10.04 15.788,6.533 19.108,-11.783 9.613,-13.996 z"
   id="path9" />
	<path
   style="fill:#00ab37"
   d="m 394.243,176.152 c 6.398,-4.265 1.242,-16.012 -6.713,-12.203 -2.836,1.357 -4.985,4.089 -6.599,7.168 0.378,-3.455 0.121,-6.922 -1.475,-9.63 -4.478,-7.6 -15.441,-0.7 -12.382,6.379 -4.265,-6.397 -16.012,-1.241 -12.203,6.713 1.357,2.836 4.089,4.984 7.167,6.599 -3.455,-0.378 -6.922,-0.12 -9.63,1.475 -7.6,4.478 -0.7,15.441 6.379,12.382 -6.398,4.265 -1.242,16.011 6.713,12.202 2.836,-1.357 4.985,-4.09 6.599,-7.168 -0.378,3.455 -0.121,6.922 1.475,9.631 3.587,6.089 11.331,2.869 12.698,-2.292 0.064,0.315 0.126,0.63 0.196,0.946 0.208,1.063 0.351,2.151 0.532,3.239 0.125,1.098 0.259,2.203 0.357,3.315 0.057,1.116 0.18,2.231 0.185,3.354 0.029,1.121 0.06,2.24 0.023,3.357 -0.003,1.117 -0.067,2.227 -0.131,3.328 -0.048,1.102 -0.185,2.189 -0.271,3.265 -0.141,1.073 -0.246,2.134 -0.416,3.171 -0.306,2.078 -0.701,4.07 -1.121,5.947 -0.434,1.874 -0.891,3.635 -1.378,5.24 -0.952,3.218 -1.948,5.829 -2.694,7.623 -0.373,0.897 -0.685,1.591 -0.902,2.053 -0.219,0.452 -0.335,0.694 -0.335,0.694 l -0.027,0.056 c -0.007,0.013 -0.013,0.028 -0.019,0.042 -0.349,0.789 0.009,1.711 0.798,2.06 0.789,0.349 1.712,-0.008 2.061,-0.798 0,0 0.121,-0.274 0.349,-0.79 0.218,-0.509 0.523,-1.252 0.881,-2.204 0.718,-1.903 1.656,-4.644 2.526,-7.999 0.445,-1.674 0.856,-3.506 1.236,-5.451 0.368,-1.949 0.704,-4.014 0.947,-6.163 0.138,-1.073 0.21,-2.171 0.317,-3.277 0.052,-1.113 0.153,-2.234 0.165,-3.37 0.028,-1.134 0.055,-2.278 0.018,-3.426 -0.001,-1.148 -0.071,-2.299 -0.141,-3.449 -0.045,-1.151 -0.208,-2.295 -0.307,-3.437 -0.139,-1.139 -0.315,-2.269 -0.482,-3.389 -0.224,-1.112 -0.408,-2.221 -0.658,-3.303 -0.277,-1.075 -0.495,-2.151 -0.809,-3.183 -0.024,-0.085 -0.053,-0.163 -0.077,-0.248 4.882,4.275 14.577,-0.671 11.067,-8.002 -1.357,-2.836 -4.089,-4.984 -7.168,-6.599 3.455,0.378 6.922,0.121 9.63,-1.475 7.598,-4.48 0.698,-15.443 -6.381,-12.383 z"
   id="path10" />
	
		<radialGradient
   id="radialGradient7"
   cx="211.5213"
   cy="10290.379"
   r="58.792099"
   gradientTransform="matrix(0.7876,0,0,0.1208,-115.4038,-1107.4211)"
   gradientUnits="userSpaceOnUse">
		<stop
   offset="0"
   style="stop-color:#63A36B"
   id="stop1" />
		<stop
   offset="0.1986"
   style="stop-color:#8FC493"
   id="stop2" />
		<stop
   offset="0.4162"
   style="stop-color:#BAE4BA"
   id="stop3" />
		<stop
   offset="0.5272"
   style="stop-color:#CBF0C9"
   id="stop4" />
		<stop
   offset="0.706"
   style="stop-color:#E5F8E4"
   id="stop5" />
		<stop
   offset="0.881"
   style="stop-color:#F8FDF8"
   id="stop6" />
		<stop
   offset="1"
   style="stop-color:#FFFFFF"
   id="stop7" />
	</radialGradient>
	<path
   style="opacity:0.2;fill:url(#SVGID_1_)"
   d="m 97.504,135.657 c 0,3.922 -20.735,7.101 -46.313,7.101 -25.578,0 -46.313,-3.179 -46.313,-7.101 0,-3.922 20.735,-7.101 46.313,-7.101 25.578,0 46.313,3.179 46.313,7.101 z"
   id="path16" />
	
		<radialGradient
   id="radialGradient84"
   cx="309.89651"
   cy="10290.379"
   r="58.792099"
   gradientTransform="matrix(0.7876,0,0,0.1208,-115.4038,-1107.4211)"
   gradientUnits="userSpaceOnUse">
		<stop
   offset="0"
   style="stop-color:#63A36B"
   id="stop8" />
		<stop
   offset="0.1986"
   style="stop-color:#8FC493"
   id="stop9" />
		<stop
   offset="0.4162"
   style="stop-color:#BAE4BA"
   id="stop80" />
		<stop
   offset="0.5272"
   style="stop-color:#CBF0C9"
   id="stop81" />
		<stop
   offset="0.706"
   style="stop-color:#E5F8E4"
   id="stop82" />
		<stop
   offset="0.881"
   style="stop-color:#F8FDF8"
   id="stop83" />
		<stop
   offset="1"
   style="stop-color:#FFFFFF"
   id="stop84" />
	</radialGradient>
	<path
   style="opacity:0.2;fill:url(#SVGID_00000023263389695336004290000011454513305436805507_)"
   d="m 174.984,135.657 c 0,3.922 -20.735,7.101 -46.313,7.101 -25.578,0 -46.313,-3.179 -46.313,-7.101 0,-3.922 20.735,-7.101 46.313,-7.101 25.578,0 46.313,3.179 46.313,7.101 z"
   id="path23" />
	
		<radialGradient
   id="radialGradient91"
   cx="443.54269"
   cy="10290.379"
   r="58.792099"
   gradientTransform="matrix(0.7876,0,0,0.1208,-115.4038,-1107.4211)"
   gradientUnits="userSpaceOnUse">
		<stop
   offset="0"
   style="stop-color:#63A36B"
   id="stop85" />
		<stop
   offset="0.1986"
   style="stop-color:#8FC493"
   id="stop86" />
		<stop
   offset="0.4162"
   style="stop-color:#BAE4BA"
   id="stop87" />
		<stop
   offset="0.5272"
   style="stop-color:#CBF0C9"
   id="stop88" />
		<stop
   offset="0.706"
   style="stop-color:#E5F8E4"
   id="stop89" />
		<stop
   offset="0.881"
   style="stop-color:#F8FDF8"
   id="stop90" />
		<stop
   offset="1"
   style="stop-color:#FFFFFF"
   id="stop91" />
	</radialGradient>
	<path
   style="opacity:0.2;fill:url(#SVGID_00000002351946587549750280000003473013006268240566_)"
   d="m 280.244,135.657 c 0,3.922 -20.735,7.101 -46.313,7.101 -25.578,0 -46.313,-3.179 -46.313,-7.101 0,-3.922 20.735,-7.101 46.313,-7.101 25.578,0 46.313,3.179 46.313,7.101 z"
   id="path30" />
	
		<radialGradient
   id="radialGradient98"
   cx="525.36218"
   cy="10290.379"
   r="58.792099"
   gradientTransform="matrix(0.7876,0,0,0.1208,-115.4038,-1107.4211)"
   gradientUnits="userSpaceOnUse">
		<stop
   offset="0"
   style="stop-color:#63A36B"
   id="stop92" />
		<stop
   offset="0.1986"
   style="stop-color:#8FC493"
   id="stop93" />
		<stop
   offset="0.4162"
   style="stop-color:#BAE4BA"
   id="stop94" />
		<stop
   offset="0.5272"
   style="stop-color:#CBF0C9"
   id="stop95" />
		<stop
   offset="0.706"
   style="stop-color:#E5F8E4"
   id="stop96" />
		<stop
   offset="0.881"
   style="stop-color:#F8FDF8"
   id="stop97" />
		<stop
   offset="1"
   style="stop-color:#FFFFFF"
   id="stop98" />
	</radialGradient>
	<path
   style="opacity:0.2;fill:url(#SVGID_00000137133939368333294100000016928507000805633459_)"
   d="m 344.685,135.657 c 0,3.922 -20.735,7.101 -46.313,7.101 -25.578,0 -46.313,-3.179 -46.313,-7.101 0,-3.922 20.735,-7.101 46.313,-7.101 25.578,0 46.313,3.179 46.313,7.101 z"
   id="path37" />
	
		<radialGradient
   id="radialGradient105"
   cx="629.97583"
   cy="10290.379"
   r="58.792099"
   gradientTransform="matrix(0.7876,0,0,0.1208,-115.4038,-1107.4211)"
   gradientUnits="userSpaceOnUse">
		<stop
   offset="0"
   style="stop-color:#63A36B"
   id="stop99" />
		<stop
   offset="0.1986"
   style="stop-color:#8FC493"
   id="stop100" />
		<stop
   offset="0.4162"
   style="stop-color:#BAE4BA"
   id="stop101" />
		<stop
   offset="0.5272"
   style="stop-color:#CBF0C9"
   id="stop102" />
		<stop
   offset="0.706"
   style="stop-color:#E5F8E4"
   id="stop103" />
		<stop
   offset="0.881"
   style="stop-color:#F8FDF8"
   id="stop104" />
		<stop
   offset="1"
   style="stop-color:#FFFFFF"
   id="stop105" />
	</radialGradient>
	<path
   style="opacity:0.2;fill:url(#SVGID_00000103964402957024549330000005940006595529824167_)"
   d="m 427.078,135.657 c 0,3.922 -20.735,7.101 -46.313,7.101 -25.578,0 -46.313,-3.179 -46.313,-7.101 0,-3.922 20.735,-7.101 46.313,-7.101 25.578,0 46.313,3.179 46.313,7.101 z"
   id="path44" />
	
		<radialGradient
   id="radialGradient112"
   cx="223.0383"
   cy="11355.718"
   r="58.792301"
   gradientTransform="matrix(0.7876,0,0,0.1208,-115.4038,-1107.4211)"
   gradientUnits="userSpaceOnUse">
		<stop
   offset="0"
   style="stop-color:#63A36B"
   id="stop106" />
		<stop
   offset="0.1986"
   style="stop-color:#8FC493"
   id="stop107" />
		<stop
   offset="0.4162"
   style="stop-color:#BAE4BA"
   id="stop108" />
		<stop
   offset="0.5272"
   style="stop-color:#CBF0C9"
   id="stop109" />
		<stop
   offset="0.706"
   style="stop-color:#E5F8E4"
   id="stop110" />
		<stop
   offset="0.881"
   style="stop-color:#F8FDF8"
   id="stop111" />
		<stop
   offset="1"
   style="stop-color:#FFFFFF"
   id="stop112" />
	</radialGradient>
	
		<ellipse
   style="opacity:0.2;fill:url(#SVGID_00000012437631697012080970000015603765442425549484_)"
   cx="60.261002"
   cy="264.349"
   rx="46.313"
   ry="7.1009998"
   id="ellipse51" />
	
		<radialGradient
   id="radialGradient119"
   cx="321.95331"
   cy="11355.718"
   r="58.792301"
   gradientTransform="matrix(0.7876,0,0,0.1208,-115.4038,-1107.4211)"
   gradientUnits="userSpaceOnUse">
		<stop
   offset="0"
   style="stop-color:#63A36B"
   id="stop113" />
		<stop
   offset="0.1986"
   style="stop-color:#8FC493"
   id="stop114" />
		<stop
   offset="0.4162"
   style="stop-color:#BAE4BA"
   id="stop115" />
		<stop
   offset="0.5272"
   style="stop-color:#CBF0C9"
   id="stop116" />
		<stop
   offset="0.706"
   style="stop-color:#E5F8E4"
   id="stop117" />
		<stop
   offset="0.881"
   style="stop-color:#F8FDF8"
   id="stop118" />
		<stop
   offset="1"
   style="stop-color:#FFFFFF"
   id="stop119" />
	</radialGradient>
	
		<ellipse
   style="opacity:0.2;fill:url(#SVGID_00000101076700821832386420000001723816967569107877_)"
   cx="138.16701"
   cy="264.349"
   rx="46.313"
   ry="7.1009998"
   id="ellipse58" />
	
		<radialGradient
   id="radialGradient126"
   cx="423.9277"
   cy="11355.718"
   r="58.792301"
   gradientTransform="matrix(0.7876,0,0,0.1208,-115.4038,-1107.4211)"
   gradientUnits="userSpaceOnUse">
		<stop
   offset="0"
   style="stop-color:#63A36B"
   id="stop120" />
		<stop
   offset="0.1986"
   style="stop-color:#8FC493"
   id="stop121" />
		<stop
   offset="0.4162"
   style="stop-color:#BAE4BA"
   id="stop122" />
		<stop
   offset="0.5272"
   style="stop-color:#CBF0C9"
   id="stop123" />
		<stop
   offset="0.706"
   style="stop-color:#E5F8E4"
   id="stop124" />
		<stop
   offset="0.881"
   style="stop-color:#F8FDF8"
   id="stop125" />
		<stop
   offset="1"
   style="stop-color:#FFFFFF"
   id="stop126" />
	</radialGradient>
	
		<ellipse
   style="opacity:0.2;fill:url(#SVGID_00000083800204401348777530000006162919542861273733_)"
   cx="218.48199"
   cy="264.349"
   rx="46.313"
   ry="7.1009998"
   id="ellipse65" />
	
		<radialGradient
   id="radialGradient133"
   cx="525.36218"
   cy="11355.718"
   r="58.792301"
   gradientTransform="matrix(0.7876,0,0,0.1208,-115.4038,-1107.4211)"
   gradientUnits="userSpaceOnUse">
		<stop
   offset="0"
   style="stop-color:#63A36B"
   id="stop127" />
		<stop
   offset="0.1986"
   style="stop-color:#8FC493"
   id="stop128" />
		<stop
   offset="0.4162"
   style="stop-color:#BAE4BA"
   id="stop129" />
		<stop
   offset="0.5272"
   style="stop-color:#CBF0C9"
   id="stop130" />
		<stop
   offset="0.706"
   style="stop-color:#E5F8E4"
   id="stop131" />
		<stop
   offset="0.881"
   style="stop-color:#F8FDF8"
   id="stop132" />
		<stop
   offset="1"
   style="stop-color:#FFFFFF"
   id="stop133" />
	</radialGradient>
	
		<ellipse
   style="opacity:0.2;fill:url(#SVGID_00000111881009266422068230000016747752852394599089_)"
   cx="298.371"
   cy="264.349"
   rx="46.313"
   ry="7.1009998"
   id="ellipse72" />
	
		<radialGradient
   id="radialGradient140"
   cx="622.41772"
   cy="11355.718"
   r="58.792301"
   gradientTransform="matrix(0.7876,0,0,0.1208,-115.4038,-1107.4211)"
   gradientUnits="userSpaceOnUse">
		<stop
   offset="0"
   style="stop-color:#63A36B"
   id="stop134" />
		<stop
   offset="0.1986"
   style="stop-color:#8FC493"
   id="stop135" />
		<stop
   offset="0.4162"
   style="stop-color:#BAE4BA"
   id="stop136" />
		<stop
   offset="0.5272"
   style="stop-color:#CBF0C9"
   id="stop137" />
		<stop
   offset="0.706"
   style="stop-color:#E5F8E4"
   id="stop138" />
		<stop
   offset="0.881"
   style="stop-color:#F8FDF8"
   id="stop139" />
		<stop
   offset="1"
   style="stop-color:#FFFFFF"
   id="stop140" />
	</radialGradient>
	
		<ellipse
   style="opacity:0.2;fill:url(#SVGID_00000124848296506669853950000010193492054305422976_)"
   cx="374.81201"
   cy="264.349"
   rx="46.313"
   ry="7.1009998"
   id="ellipse79" />
</g></svg>
